<mxfile host="65bd71144e" pages="6">
    <diagram name="Main" id="03018318-947c-dd8e-b7a3-06fadd420f32">
        <mxGraphModel dx="1061" dy="748" grid="1" gridSize="10" guides="1" tooltips="1" connect="1" arrows="1" fold="1" page="1" pageScale="1" pageWidth="1600" pageHeight="1200" background="none" math="0" shadow="0">
            <root>
                <mxCell id="0"/>
                <mxCell id="1" parent="0"/>
                <mxCell id="677b7b8949515195-1" value="" style="whiteSpace=wrap;html=1;rounded=0;shadow=0;labelBackgroundColor=none;strokeColor=#000000;strokeWidth=1;fillColor=none;fontFamily=Verdana;fontSize=12;fontColor=#000000;align=center;comic=1;" parent="1" vertex="1">
                    <mxGeometry x="20" y="10" width="1570" height="1180" as="geometry"/>
                </mxCell>
                <mxCell id="677b7b8949515195-2" value="Anima Mundi Board Game Club" style="whiteSpace=wrap;html=1;rounded=0;shadow=0;labelBackgroundColor=none;strokeWidth=1;fontFamily=Verdana;fontSize=28;align=center;comic=1;" parent="1" vertex="1">
                    <mxGeometry x="567.5" y="40" width="467" height="85" as="geometry"/>
                </mxCell>
                <mxCell id="677b7b8949515195-3" value="Search" style="strokeWidth=1;shadow=0;dashed=0;align=center;html=1;shape=mxgraph.mockup.forms.searchBox;strokeColor=#999999;mainText=;strokeColor2=#008cff;fontColor=#666666;fontSize=17;align=left;spacingLeft=3;rounded=0;labelBackgroundColor=none;comic=1;" parent="1" vertex="1">
                    <mxGeometry x="1360" y="110" width="220" height="30" as="geometry"/>
                </mxCell>
                <mxCell id="677b7b8949515195-8" value="" style="whiteSpace=wrap;html=1;rounded=0;shadow=0;labelBackgroundColor=none;strokeWidth=1;fillColor=none;fontFamily=Verdana;fontSize=12;align=center;comic=1;" parent="1" vertex="1">
                    <mxGeometry x="30" y="600" width="410" height="450" as="geometry"/>
                </mxCell>
                <mxCell id="677b7b8949515195-10" value="" style="whiteSpace=wrap;html=1;rounded=0;shadow=0;labelBackgroundColor=none;strokeWidth=1;fillColor=none;fontFamily=Verdana;fontSize=12;align=center;comic=1;" parent="1" vertex="1">
                    <mxGeometry x="30" y="160" width="1550" height="50" as="geometry"/>
                </mxCell>
                <mxCell id="677b7b8949515195-11" value="Home" style="text;html=1;points=[];align=center;verticalAlign=top;spacingTop=-4;fontSize=14;fontFamily=Verdana;fillColor=#ffe6cc;strokeColor=#d79b00;" parent="1" vertex="1">
                    <mxGeometry x="478" y="175" width="60" height="20" as="geometry"/>
                </mxCell>
                <mxCell id="677b7b8949515195-12" value="Events" style="text;html=1;points=[];align=center;verticalAlign=top;spacingTop=-4;fontSize=14;fontFamily=Verdana" parent="1" vertex="1">
                    <mxGeometry x="625" y="175" width="60" height="20" as="geometry"/>
                </mxCell>
                <mxCell id="677b7b8949515195-13" value="Reviews" style="text;html=1;points=[];align=left;verticalAlign=top;spacingTop=-4;fontSize=14;fontFamily=Verdana" parent="1" vertex="1">
                    <mxGeometry x="771" y="175" width="60" height="20" as="geometry"/>
                </mxCell>
                <mxCell id="677b7b8949515195-15" value="&lt;div style=&quot;text-align: justify&quot;&gt;SITE DESCRIPTION&lt;/div&gt;" style="whiteSpace=wrap;html=1;rounded=0;shadow=0;labelBackgroundColor=none;strokeWidth=1;fillColor=none;fontFamily=Verdana;fontSize=12;align=center;verticalAlign=top;spacing=10;comic=1;" parent="1" vertex="1">
                    <mxGeometry x="450.62" y="600" width="719.38" height="450" as="geometry"/>
                </mxCell>
                <mxCell id="677b7b8949515195-26" value="MAP" style="whiteSpace=wrap;html=1;rounded=0;shadow=0;labelBackgroundColor=none;strokeWidth=1;fillColor=none;fontFamily=Verdana;fontSize=12;align=center;comic=1;" parent="1" vertex="1">
                    <mxGeometry x="1180" y="596" width="400" height="374" as="geometry"/>
                </mxCell>
                <mxCell id="k-GG3RUXwYEk20aegxlU-4" value="FOOTER" style="whiteSpace=wrap;html=1;rounded=0;shadow=0;labelBackgroundColor=none;strokeWidth=1;fillColor=none;fontFamily=Verdana;fontSize=12;align=center;comic=1;" parent="1" vertex="1">
                    <mxGeometry x="30" y="1060" width="1550" height="110" as="geometry"/>
                </mxCell>
                <mxCell id="k-GG3RUXwYEk20aegxlU-6" value="COVID GUIDELINES" style="whiteSpace=wrap;html=1;rounded=0;shadow=0;labelBackgroundColor=none;strokeWidth=1;fillColor=none;fontFamily=Verdana;fontSize=12;align=center;comic=1;" parent="1" vertex="1">
                    <mxGeometry x="30" y="230" width="1550" height="30" as="geometry"/>
                </mxCell>
                <mxCell id="k-GG3RUXwYEk20aegxlU-9" value="IMAGE CAROUSELL" style="whiteSpace=wrap;html=1;rounded=0;shadow=0;labelBackgroundColor=none;strokeWidth=1;fillColor=none;fontFamily=Verdana;fontSize=12;align=center;comic=1;" parent="1" vertex="1">
                    <mxGeometry x="30" y="270" width="1550" height="320" as="geometry"/>
                </mxCell>
                <mxCell id="k-GG3RUXwYEk20aegxlU-11" value="SOCIAL MEDIA" style="whiteSpace=wrap;html=1;rounded=0;shadow=0;labelBackgroundColor=none;strokeWidth=1;fillColor=none;fontFamily=Verdana;fontSize=12;align=center;comic=1;" parent="1" vertex="1">
                    <mxGeometry x="1180" y="980" width="400" height="70" as="geometry"/>
                </mxCell>
                <mxCell id="GOJK8IqNdyb3k1FqaGKl-1" value="MOST PLAYED GAMES OF THE MONTH" style="whiteSpace=wrap;html=1;rounded=0;shadow=0;labelBackgroundColor=none;strokeWidth=1;fillColor=none;fontFamily=Verdana;fontSize=12;align=center;comic=1;" parent="1" vertex="1">
                    <mxGeometry x="50" y="610" width="380" height="60" as="geometry"/>
                </mxCell>
                <mxCell id="GOJK8IqNdyb3k1FqaGKl-7" value="&lt;ol style=&quot;font-size: 23px;&quot;&gt;&lt;li style=&quot;font-size: 23px;&quot;&gt;BOARD GAME&lt;/li&gt;&lt;li style=&quot;font-size: 23px;&quot;&gt;BOARD GAME&lt;/li&gt;&lt;li style=&quot;font-size: 23px;&quot;&gt;BOARD GAME&lt;/li&gt;&lt;li style=&quot;font-size: 23px;&quot;&gt;BOARD GAME&lt;/li&gt;&lt;li style=&quot;font-size: 23px;&quot;&gt;BOARD GAME&lt;/li&gt;&lt;li style=&quot;font-size: 23px;&quot;&gt;BOARD GAME&lt;/li&gt;&lt;li style=&quot;font-size: 23px;&quot;&gt;BOARD GAME&lt;/li&gt;&lt;li style=&quot;font-size: 23px;&quot;&gt;BOARD GAME&lt;/li&gt;&lt;li style=&quot;font-size: 23px;&quot;&gt;BOARD GAME&lt;/li&gt;&lt;li style=&quot;font-size: 23px;&quot;&gt;BOARD GAME&lt;/li&gt;&lt;/ol&gt;" style="text;strokeColor=none;fillColor=none;html=1;whiteSpace=wrap;verticalAlign=middle;overflow=hidden;fontSize=23;spacingTop=0;spacing=15;" parent="1" vertex="1">
                    <mxGeometry x="50" y="680" width="380" height="360" as="geometry"/>
                </mxCell>
                <mxCell id="eJZc40vha4-56mfr8BrR-1" value="About us" style="text;html=1;points=[];align=center;verticalAlign=top;spacingTop=-4;fontSize=14;fontFamily=Verdana;" vertex="1" parent="1">
                    <mxGeometry x="1090" y="175" width="70" height="20" as="geometry"/>
                </mxCell>
                <mxCell id="eJZc40vha4-56mfr8BrR-2" value="Membership" style="text;html=1;points=[];align=left;verticalAlign=top;spacingTop=-4;fontSize=14;fontFamily=Verdana" vertex="1" parent="1">
                    <mxGeometry x="920" y="175" width="83" height="20" as="geometry"/>
                </mxCell>
            </root>
        </mxGraphModel>
    </diagram>
    <diagram name="Events" id="_TDW7Qhro5rWFL1rp3XJ">
        <mxGraphModel dx="1248" dy="880" grid="1" gridSize="10" guides="1" tooltips="1" connect="1" arrows="1" fold="1" page="1" pageScale="1" pageWidth="1169" pageHeight="827" background="none" math="0" shadow="0">
            <root>
                <mxCell id="t6-bNSC78inA-mY6vj69-0"/>
                <mxCell id="t6-bNSC78inA-mY6vj69-1" parent="t6-bNSC78inA-mY6vj69-0"/>
                <mxCell id="t6-bNSC78inA-mY6vj69-2" value="" style="whiteSpace=wrap;html=1;rounded=0;shadow=0;labelBackgroundColor=none;strokeColor=#000000;strokeWidth=1;fillColor=none;fontFamily=Verdana;fontSize=12;fontColor=#000000;align=center;comic=1;" parent="t6-bNSC78inA-mY6vj69-1" vertex="1">
                    <mxGeometry x="10" y="10" width="1150" height="1180" as="geometry"/>
                </mxCell>
                <mxCell id="t6-bNSC78inA-mY6vj69-5" value="UPCOMING EVENTS" style="whiteSpace=wrap;html=1;rounded=0;shadow=0;labelBackgroundColor=none;strokeWidth=1;fillColor=none;fontFamily=Verdana;fontSize=12;align=center;comic=1;spacingLeft=20;labelPosition=center;verticalLabelPosition=top;verticalAlign=bottom;spacing=-27;" parent="t6-bNSC78inA-mY6vj69-1" vertex="1">
                    <mxGeometry x="30" y="270" width="1120" height="490" as="geometry"/>
                </mxCell>
                <mxCell id="ZzJkHAlWuJiuaTA5zk3n-53" value="FORM TO PARTICIPATE" style="whiteSpace=wrap;html=1;rounded=0;shadow=0;labelBackgroundColor=none;strokeWidth=1;fillColor=none;fontFamily=Verdana;fontSize=12;align=center;comic=1;spacingLeft=20;labelPosition=center;verticalLabelPosition=top;verticalAlign=bottom;spacing=-24;" parent="t6-bNSC78inA-mY6vj69-1" vertex="1">
                    <mxGeometry x="680" y="310" width="460" height="440" as="geometry"/>
                </mxCell>
                <mxCell id="t6-bNSC78inA-mY6vj69-3" value="Anima Mundi Board Game Club" style="whiteSpace=wrap;html=1;rounded=0;shadow=0;labelBackgroundColor=none;strokeWidth=1;fontFamily=Verdana;fontSize=28;align=center;comic=1;" parent="t6-bNSC78inA-mY6vj69-1" vertex="1">
                    <mxGeometry x="351" y="40" width="467" height="85" as="geometry"/>
                </mxCell>
                <mxCell id="t6-bNSC78inA-mY6vj69-4" value="Search" style="strokeWidth=1;shadow=0;dashed=0;align=center;html=1;shape=mxgraph.mockup.forms.searchBox;strokeColor=#999999;mainText=;strokeColor2=#008cff;fontColor=#666666;fontSize=17;align=left;spacingLeft=3;rounded=0;labelBackgroundColor=none;comic=1;" parent="t6-bNSC78inA-mY6vj69-1" vertex="1">
                    <mxGeometry x="930" y="110" width="220" height="30" as="geometry"/>
                </mxCell>
                <mxCell id="t6-bNSC78inA-mY6vj69-6" value="" style="whiteSpace=wrap;html=1;rounded=0;shadow=0;labelBackgroundColor=none;strokeWidth=1;fillColor=none;fontFamily=Verdana;fontSize=12;align=center;comic=1;" parent="t6-bNSC78inA-mY6vj69-1" vertex="1">
                    <mxGeometry x="30" y="160" width="1120" height="50" as="geometry"/>
                </mxCell>
                <mxCell id="t6-bNSC78inA-mY6vj69-7" value="Home" style="text;html=1;points=[];align=center;verticalAlign=top;spacingTop=-4;fontSize=14;fontFamily=Verdana;" parent="t6-bNSC78inA-mY6vj69-1" vertex="1">
                    <mxGeometry x="267.5" y="175" width="60" height="20" as="geometry"/>
                </mxCell>
                <mxCell id="t6-bNSC78inA-mY6vj69-8" value="Events" style="text;html=1;points=[];align=center;verticalAlign=top;spacingTop=-4;fontSize=14;fontFamily=Verdana;fillColor=#ffe6cc;strokeColor=#d79b00;" parent="t6-bNSC78inA-mY6vj69-1" vertex="1">
                    <mxGeometry x="414.5" y="175" width="60" height="20" as="geometry"/>
                </mxCell>
                <mxCell id="t6-bNSC78inA-mY6vj69-9" value="Reviews" style="text;html=1;points=[];align=left;verticalAlign=top;spacingTop=-4;fontSize=14;fontFamily=Verdana" parent="t6-bNSC78inA-mY6vj69-1" vertex="1">
                    <mxGeometry x="560.5" y="175" width="60" height="20" as="geometry"/>
                </mxCell>
                <mxCell id="t6-bNSC78inA-mY6vj69-14" value="FOOTER" style="whiteSpace=wrap;html=1;rounded=0;shadow=0;labelBackgroundColor=none;strokeWidth=1;fillColor=none;fontFamily=Verdana;fontSize=12;align=center;comic=1;" parent="t6-bNSC78inA-mY6vj69-1" vertex="1">
                    <mxGeometry x="30" y="1060" width="1120" height="110" as="geometry"/>
                </mxCell>
                <mxCell id="t6-bNSC78inA-mY6vj69-15" value="COVID GUIDELINES" style="whiteSpace=wrap;html=1;rounded=0;shadow=0;labelBackgroundColor=none;strokeWidth=1;fillColor=none;fontFamily=Verdana;fontSize=12;align=center;comic=1;" parent="t6-bNSC78inA-mY6vj69-1" vertex="1">
                    <mxGeometry x="30" y="230" width="1120" height="30" as="geometry"/>
                </mxCell>
                <mxCell id="t6-bNSC78inA-mY6vj69-20" value="PAST EVENTS" style="whiteSpace=wrap;html=1;rounded=0;shadow=0;labelBackgroundColor=none;strokeWidth=1;fillColor=none;fontFamily=Verdana;fontSize=12;align=center;comic=1;spacingLeft=20;labelPosition=center;verticalLabelPosition=top;verticalAlign=bottom;spacing=-21;" parent="t6-bNSC78inA-mY6vj69-1" vertex="1">
                    <mxGeometry x="30.5" y="770" width="1120" height="270" as="geometry"/>
                </mxCell>
                <mxCell id="ZzJkHAlWuJiuaTA5zk3n-27" value="Weekly Events" style="whiteSpace=wrap;html=1;rounded=0;shadow=0;labelBackgroundColor=none;strokeWidth=1;fillColor=none;fontFamily=Verdana;fontSize=12;align=left;comic=1;spacingLeft=20;" parent="t6-bNSC78inA-mY6vj69-1" vertex="1">
                    <mxGeometry x="40" y="310" width="630" height="210" as="geometry"/>
                </mxCell>
                <mxCell id="ZzJkHAlWuJiuaTA5zk3n-37" value="Name" style="fillColor=none;strokeColor=none;align=left;fontSize=14;" parent="t6-bNSC78inA-mY6vj69-1" vertex="1">
                    <mxGeometry x="690" y="321" width="260" height="40" as="geometry"/>
                </mxCell>
                <mxCell id="ZzJkHAlWuJiuaTA5zk3n-38" value="Name" style="html=1;shadow=0;dashed=0;shape=mxgraph.bootstrap.rrect;rSize=5;fillColor=none;strokeColor=#999999;align=left;spacing=15;fontSize=14;fontColor=#6C767D;" parent="t6-bNSC78inA-mY6vj69-1" vertex="1">
                    <mxGeometry width="440" height="30" relative="1" as="geometry">
                        <mxPoint x="690" y="361" as="offset"/>
                    </mxGeometry>
                </mxCell>
                <mxCell id="ZzJkHAlWuJiuaTA5zk3n-39" value="Dates" style="fillColor=none;strokeColor=none;align=left;fontSize=14;" parent="t6-bNSC78inA-mY6vj69-1" vertex="1">
                    <mxGeometry width="260" height="40" relative="1" as="geometry">
                        <mxPoint x="690" y="540" as="offset"/>
                    </mxGeometry>
                </mxCell>
                <mxCell id="ZzJkHAlWuJiuaTA5zk3n-55" value="SEND" style="strokeWidth=1;shadow=0;dashed=0;align=center;html=1;shape=mxgraph.mockup.buttons.button;strokeColor=#666666;fontColor=#ffffff;mainText=;buttonStyle=round;fontSize=17;fontStyle=1;fillColor=#008cff;whiteSpace=wrap;" parent="t6-bNSC78inA-mY6vj69-1" vertex="1">
                    <mxGeometry x="690" y="690" width="440" height="50" as="geometry"/>
                </mxCell>
                <mxCell id="ZzJkHAlWuJiuaTA5zk3n-57" value="" style="strokeWidth=1;shadow=0;dashed=0;align=center;html=1;shape=mxgraph.mockup.forms.rrect;rSize=0;strokeColor=#999999;fillColor=#ffffff;recursiveResize=0;fontSize=23;" parent="t6-bNSC78inA-mY6vj69-1" vertex="1">
                    <mxGeometry x="690" y="580" width="440" height="96" as="geometry"/>
                </mxCell>
                <mxCell id="ZzJkHAlWuJiuaTA5zk3n-58" value="Option 1" style="strokeWidth=1;shadow=0;dashed=0;align=center;html=1;shape=mxgraph.mockup.forms.rrect;rSize=0;fillColor=#eeeeee;strokeColor=#999999;gradientColor=#cccccc;align=left;spacingLeft=4;fontSize=17;fontColor=#666666;labelPosition=right;" parent="ZzJkHAlWuJiuaTA5zk3n-57" vertex="1">
                    <mxGeometry x="8" y="7.5" width="15" height="15" as="geometry"/>
                </mxCell>
                <mxCell id="ZzJkHAlWuJiuaTA5zk3n-59" value="Option 2" style="strokeWidth=1;shadow=0;dashed=0;align=center;html=1;shape=mxgraph.mockup.forms.rrect;rSize=0;fillColor=#eeeeee;strokeColor=#999999;gradientColor=#cccccc;align=left;spacingLeft=4;fontSize=17;fontColor=#666666;labelPosition=right;" parent="ZzJkHAlWuJiuaTA5zk3n-57" vertex="1">
                    <mxGeometry x="8" y="37.5" width="15" height="15" as="geometry"/>
                </mxCell>
                <mxCell id="ZzJkHAlWuJiuaTA5zk3n-60" value="Option 3" style="strokeWidth=1;shadow=0;dashed=0;align=center;html=1;shape=mxgraph.mockup.forms.checkbox;rSize=0;resizable=0;fillColor=#aaaaaa;strokeColor=#444444;gradientColor=#666666;align=left;spacingLeft=4;fontSize=17;fontColor=#008cff;labelPosition=right;" parent="ZzJkHAlWuJiuaTA5zk3n-57" vertex="1">
                    <mxGeometry x="8" y="67.5" width="15" height="15" as="geometry"/>
                </mxCell>
                <mxCell id="ZzJkHAlWuJiuaTA5zk3n-63" value="Email address" style="fillColor=none;strokeColor=none;align=left;fontSize=14;" parent="t6-bNSC78inA-mY6vj69-1" vertex="1">
                    <mxGeometry x="690" y="390" width="260" height="40" as="geometry"/>
                </mxCell>
                <mxCell id="ZzJkHAlWuJiuaTA5zk3n-64" value="name@example.com" style="html=1;shadow=0;dashed=0;shape=mxgraph.bootstrap.rrect;rSize=5;fillColor=none;strokeColor=#999999;align=left;spacing=15;fontSize=14;fontColor=#6C767D;" parent="t6-bNSC78inA-mY6vj69-1" vertex="1">
                    <mxGeometry x="690" y="430" width="440" height="30" as="geometry"/>
                </mxCell>
                <mxCell id="ZzJkHAlWuJiuaTA5zk3n-65" value="How many people?" style="fillColor=none;strokeColor=none;align=left;fontSize=14;" parent="t6-bNSC78inA-mY6vj69-1" vertex="1">
                    <mxGeometry x="690" y="460" width="260" height="40" as="geometry"/>
                </mxCell>
                <mxCell id="ZzJkHAlWuJiuaTA5zk3n-66" value="##" style="html=1;shadow=0;dashed=0;shape=mxgraph.bootstrap.rrect;rSize=5;fillColor=none;strokeColor=#999999;align=left;spacing=15;fontSize=14;fontColor=#6C767D;" parent="t6-bNSC78inA-mY6vj69-1" vertex="1">
                    <mxGeometry x="690" y="500" width="440" height="30" as="geometry"/>
                </mxCell>
                <mxCell id="pbylMQak9GpHLzQ9OBa7-1" value="" style="aspect=fixed;html=1;points=[];align=center;image;fontSize=12;image=img/lib/azure2/general/Image.svg;opacity=60;" vertex="1" parent="t6-bNSC78inA-mY6vj69-1">
                    <mxGeometry x="66.1" y="800" width="174.55" height="120" as="geometry"/>
                </mxCell>
                <mxCell id="pbylMQak9GpHLzQ9OBa7-6" value="" style="aspect=fixed;html=1;points=[];align=center;image;fontSize=12;image=img/lib/azure2/general/Image.svg;opacity=60;" vertex="1" parent="t6-bNSC78inA-mY6vj69-1">
                    <mxGeometry x="65.6" y="920" width="174.55" height="120" as="geometry"/>
                </mxCell>
                <mxCell id="pbylMQak9GpHLzQ9OBa7-7" value="" style="aspect=fixed;html=1;points=[];align=center;image;fontSize=12;image=img/lib/azure2/general/Image.svg;opacity=60;" vertex="1" parent="t6-bNSC78inA-mY6vj69-1">
                    <mxGeometry x="241.15" y="800" width="174.55" height="120" as="geometry"/>
                </mxCell>
                <mxCell id="pbylMQak9GpHLzQ9OBa7-8" value="" style="aspect=fixed;html=1;points=[];align=center;image;fontSize=12;image=img/lib/azure2/general/Image.svg;opacity=60;" vertex="1" parent="t6-bNSC78inA-mY6vj69-1">
                    <mxGeometry x="240.65" y="920" width="174.55" height="120" as="geometry"/>
                </mxCell>
                <mxCell id="pbylMQak9GpHLzQ9OBa7-9" value="" style="aspect=fixed;html=1;points=[];align=center;image;fontSize=12;image=img/lib/azure2/general/Image.svg;opacity=60;" vertex="1" parent="t6-bNSC78inA-mY6vj69-1">
                    <mxGeometry x="415.70000000000005" y="800" width="174.55" height="120" as="geometry"/>
                </mxCell>
                <mxCell id="pbylMQak9GpHLzQ9OBa7-10" value="" style="aspect=fixed;html=1;points=[];align=center;image;fontSize=12;image=img/lib/azure2/general/Image.svg;opacity=60;" vertex="1" parent="t6-bNSC78inA-mY6vj69-1">
                    <mxGeometry x="415.20000000000005" y="920" width="174.55" height="120" as="geometry"/>
                </mxCell>
                <mxCell id="pbylMQak9GpHLzQ9OBa7-11" value="" style="aspect=fixed;html=1;points=[];align=center;image;fontSize=12;image=img/lib/azure2/general/Image.svg;opacity=60;" vertex="1" parent="t6-bNSC78inA-mY6vj69-1">
                    <mxGeometry x="590.7500000000001" y="800" width="174.55" height="120" as="geometry"/>
                </mxCell>
                <mxCell id="pbylMQak9GpHLzQ9OBa7-12" value="" style="aspect=fixed;html=1;points=[];align=center;image;fontSize=12;image=img/lib/azure2/general/Image.svg;opacity=60;" vertex="1" parent="t6-bNSC78inA-mY6vj69-1">
                    <mxGeometry x="590.2500000000001" y="920" width="174.55" height="120" as="geometry"/>
                </mxCell>
                <mxCell id="pbylMQak9GpHLzQ9OBa7-13" value="" style="aspect=fixed;html=1;points=[];align=center;image;fontSize=12;image=img/lib/azure2/general/Image.svg;opacity=60;" vertex="1" parent="t6-bNSC78inA-mY6vj69-1">
                    <mxGeometry x="765.8000000000001" y="800" width="174.55" height="120" as="geometry"/>
                </mxCell>
                <mxCell id="pbylMQak9GpHLzQ9OBa7-14" value="" style="aspect=fixed;html=1;points=[];align=center;image;fontSize=12;image=img/lib/azure2/general/Image.svg;opacity=60;" vertex="1" parent="t6-bNSC78inA-mY6vj69-1">
                    <mxGeometry x="765.3000000000001" y="920" width="174.55" height="120" as="geometry"/>
                </mxCell>
                <mxCell id="pbylMQak9GpHLzQ9OBa7-15" value="" style="aspect=fixed;html=1;points=[];align=center;image;fontSize=12;image=img/lib/azure2/general/Image.svg;opacity=60;" vertex="1" parent="t6-bNSC78inA-mY6vj69-1">
                    <mxGeometry x="940.85" y="800" width="174.55" height="120" as="geometry"/>
                </mxCell>
                <mxCell id="pbylMQak9GpHLzQ9OBa7-16" value="" style="aspect=fixed;html=1;points=[];align=center;image;fontSize=12;image=img/lib/azure2/general/Image.svg;opacity=60;" vertex="1" parent="t6-bNSC78inA-mY6vj69-1">
                    <mxGeometry x="940.35" y="920" width="174.55" height="120" as="geometry"/>
                </mxCell>
                <mxCell id="JhZ-tw18THjsWMdFrh_D-0" value="About us" style="text;html=1;points=[];align=center;verticalAlign=top;spacingTop=-4;fontSize=14;fontFamily=Verdana;" vertex="1" parent="t6-bNSC78inA-mY6vj69-1">
                    <mxGeometry x="892.5" y="175" width="70" height="20" as="geometry"/>
                </mxCell>
                <mxCell id="JhZ-tw18THjsWMdFrh_D-1" value="Membership" style="text;html=1;points=[];align=left;verticalAlign=top;spacingTop=-4;fontSize=14;fontFamily=Verdana" vertex="1" parent="t6-bNSC78inA-mY6vj69-1">
                    <mxGeometry x="702.5" y="175" width="83" height="20" as="geometry"/>
                </mxCell>
                <mxCell id="w0N1gZ1I9rpGn9Orac1t-0" value="Monthly Events" style="whiteSpace=wrap;html=1;rounded=0;shadow=0;labelBackgroundColor=none;strokeWidth=1;fillColor=none;fontFamily=Verdana;fontSize=12;align=left;comic=1;spacingLeft=20;" vertex="1" parent="t6-bNSC78inA-mY6vj69-1">
                    <mxGeometry x="40" y="530" width="630" height="210" as="geometry"/>
                </mxCell>
            </root>
        </mxGraphModel>
    </diagram>
    <diagram name="Reviews - Articles" id="TYI2n_GWGkfiC5WvN3jg">
        <mxGraphModel dx="1061" dy="748" grid="1" gridSize="10" guides="1" tooltips="1" connect="1" arrows="1" fold="1" page="1" pageScale="1" pageWidth="1169" pageHeight="827" background="none" math="0" shadow="0">
            <root>
                <mxCell id="YEVu-PI1zoeRwZROw61F-0"/>
                <mxCell id="YEVu-PI1zoeRwZROw61F-1" parent="YEVu-PI1zoeRwZROw61F-0"/>
                <mxCell id="YEVu-PI1zoeRwZROw61F-2" value="" style="whiteSpace=wrap;html=1;rounded=0;shadow=0;labelBackgroundColor=none;strokeColor=#000000;strokeWidth=1;fillColor=none;fontFamily=Verdana;fontSize=12;fontColor=#000000;align=center;comic=1;" parent="YEVu-PI1zoeRwZROw61F-1" vertex="1">
                    <mxGeometry x="30" y="20" width="1130" height="1610" as="geometry"/>
                </mxCell>
                <mxCell id="YEVu-PI1zoeRwZROw61F-3" value="Anima Mundi Board Game Club" style="whiteSpace=wrap;html=1;rounded=0;shadow=0;labelBackgroundColor=none;strokeWidth=1;fontFamily=Verdana;fontSize=28;align=center;comic=1;" parent="YEVu-PI1zoeRwZROw61F-1" vertex="1">
                    <mxGeometry x="351" y="55" width="467" height="85" as="geometry"/>
                </mxCell>
                <mxCell id="YEVu-PI1zoeRwZROw61F-4" value="Search" style="strokeWidth=1;shadow=0;dashed=0;align=center;html=1;shape=mxgraph.mockup.forms.searchBox;strokeColor=#999999;mainText=;strokeColor2=#008cff;fontColor=#666666;fontSize=17;align=left;spacingLeft=3;rounded=0;labelBackgroundColor=none;comic=1;" parent="YEVu-PI1zoeRwZROw61F-1" vertex="1">
                    <mxGeometry x="920" y="110" width="220" height="30" as="geometry"/>
                </mxCell>
                <mxCell id="YEVu-PI1zoeRwZROw61F-5" value="ARTICLE 1" style="whiteSpace=wrap;html=1;rounded=0;shadow=0;labelBackgroundColor=none;strokeWidth=1;fillColor=none;fontFamily=Verdana;fontSize=12;align=center;comic=1;" parent="YEVu-PI1zoeRwZROw61F-1" vertex="1">
                    <mxGeometry x="95" y="440" width="980" height="180" as="geometry"/>
                </mxCell>
                <mxCell id="YEVu-PI1zoeRwZROw61F-6" value="" style="whiteSpace=wrap;html=1;rounded=0;shadow=0;labelBackgroundColor=none;strokeWidth=1;fillColor=none;fontFamily=Verdana;fontSize=12;align=center;comic=1;" parent="YEVu-PI1zoeRwZROw61F-1" vertex="1">
                    <mxGeometry x="30" y="160" width="1110" height="50" as="geometry"/>
                </mxCell>
                <mxCell id="YEVu-PI1zoeRwZROw61F-7" value="Home" style="text;html=1;points=[];align=left;verticalAlign=top;spacingTop=-4;fontSize=14;fontFamily=Verdana" parent="YEVu-PI1zoeRwZROw61F-1" vertex="1">
                    <mxGeometry x="262" y="175" width="60" height="20" as="geometry"/>
                </mxCell>
                <mxCell id="YEVu-PI1zoeRwZROw61F-8" value="Events" style="text;html=1;points=[];align=left;verticalAlign=top;spacingTop=-4;fontSize=14;fontFamily=Verdana" parent="YEVu-PI1zoeRwZROw61F-1" vertex="1">
                    <mxGeometry x="409" y="175" width="60" height="20" as="geometry"/>
                </mxCell>
                <mxCell id="YEVu-PI1zoeRwZROw61F-9" value="Reviews" style="text;html=1;points=[];align=left;verticalAlign=top;spacingTop=-4;fontSize=14;fontFamily=Verdana;fillColor=#ffe6cc;strokeColor=#d79b00;" parent="YEVu-PI1zoeRwZROw61F-1" vertex="1">
                    <mxGeometry x="555" y="175" width="60" height="20" as="geometry"/>
                </mxCell>
                <mxCell id="YEVu-PI1zoeRwZROw61F-14" value="FOOTER" style="whiteSpace=wrap;html=1;rounded=0;shadow=0;labelBackgroundColor=none;strokeWidth=1;fillColor=none;fontFamily=Verdana;fontSize=12;align=center;comic=1;" parent="YEVu-PI1zoeRwZROw61F-1" vertex="1">
                    <mxGeometry x="40" y="1500" width="1110" height="110" as="geometry"/>
                </mxCell>
                <mxCell id="YEVu-PI1zoeRwZROw61F-15" value="COVID GUIDELINES" style="whiteSpace=wrap;html=1;rounded=0;shadow=0;labelBackgroundColor=none;strokeWidth=1;fillColor=none;fontFamily=Verdana;fontSize=12;align=center;comic=1;" parent="YEVu-PI1zoeRwZROw61F-1" vertex="1">
                    <mxGeometry x="30" y="230" width="1120" height="30" as="geometry"/>
                </mxCell>
                <mxCell id="sh-ux3oeJtH3sTLAiefv-2" value="ARTICLES" style="whiteSpace=wrap;html=1;rounded=0;shadow=0;labelBackgroundColor=none;strokeWidth=1;fillColor=#ffe6cc;fontFamily=Verdana;fontSize=12;align=center;comic=1;strokeColor=#d79b00;" parent="YEVu-PI1zoeRwZROw61F-1" vertex="1">
                    <mxGeometry x="405" y="290" width="157" height="70" as="geometry"/>
                </mxCell>
                <mxCell id="sh-ux3oeJtH3sTLAiefv-3" value="VIDEOS" style="whiteSpace=wrap;html=1;rounded=0;shadow=0;labelBackgroundColor=none;strokeWidth=1;fillColor=none;fontFamily=Verdana;fontSize=12;align=center;comic=1;" parent="YEVu-PI1zoeRwZROw61F-1" vertex="1">
                    <mxGeometry x="605" y="290" width="157" height="70" as="geometry"/>
                </mxCell>
                <mxCell id="sh-ux3oeJtH3sTLAiefv-9" value="ARTICLE 2" style="whiteSpace=wrap;html=1;rounded=0;shadow=0;labelBackgroundColor=none;strokeWidth=1;fillColor=none;fontFamily=Verdana;fontSize=12;align=center;comic=1;" parent="YEVu-PI1zoeRwZROw61F-1" vertex="1">
                    <mxGeometry x="95" y="640" width="980" height="180" as="geometry"/>
                </mxCell>
                <mxCell id="sh-ux3oeJtH3sTLAiefv-10" value="ARTICLE 3" style="whiteSpace=wrap;html=1;rounded=0;shadow=0;labelBackgroundColor=none;strokeWidth=1;fillColor=none;fontFamily=Verdana;fontSize=12;align=center;comic=1;" parent="YEVu-PI1zoeRwZROw61F-1" vertex="1">
                    <mxGeometry x="95" y="840" width="980" height="190" as="geometry"/>
                </mxCell>
                <mxCell id="sh-ux3oeJtH3sTLAiefv-11" value="INDEX BY GAME NAME" style="whiteSpace=wrap;html=1;rounded=0;shadow=0;labelBackgroundColor=none;strokeWidth=1;fillColor=none;fontFamily=Verdana;fontSize=12;align=center;comic=1;" parent="YEVu-PI1zoeRwZROw61F-1" vertex="1">
                    <mxGeometry x="95" y="380" width="980" height="40" as="geometry"/>
                </mxCell>
                <mxCell id="-wrxc94k988-5BezM-_0-0" value="ARTICLE 4" style="whiteSpace=wrap;html=1;rounded=0;shadow=0;labelBackgroundColor=none;strokeWidth=1;fillColor=none;fontFamily=Verdana;fontSize=12;align=center;comic=1;" parent="YEVu-PI1zoeRwZROw61F-1" vertex="1">
                    <mxGeometry x="95" y="1050" width="980" height="180" as="geometry"/>
                </mxCell>
                <mxCell id="-wrxc94k988-5BezM-_0-1" value="ARTICLE 5" style="whiteSpace=wrap;html=1;rounded=0;shadow=0;labelBackgroundColor=none;strokeWidth=1;fillColor=none;fontFamily=Verdana;fontSize=12;align=center;comic=1;" parent="YEVu-PI1zoeRwZROw61F-1" vertex="1">
                    <mxGeometry x="95" y="1250" width="980" height="180" as="geometry"/>
                </mxCell>
                <mxCell id="-wrxc94k988-5BezM-_0-7" value="" style="aspect=fixed;html=1;points=[];align=center;image;fontSize=12;image=img/lib/azure2/general/Image.svg;opacity=60;" parent="YEVu-PI1zoeRwZROw61F-1" vertex="1">
                    <mxGeometry x="115" y="450" width="232.73" height="160" as="geometry"/>
                </mxCell>
                <mxCell id="-wrxc94k988-5BezM-_0-8" value="" style="aspect=fixed;html=1;points=[];align=center;image;fontSize=12;image=img/lib/azure2/general/Image.svg;opacity=60;" parent="YEVu-PI1zoeRwZROw61F-1" vertex="1">
                    <mxGeometry x="115" y="650" width="232.73" height="160" as="geometry"/>
                </mxCell>
                <mxCell id="-wrxc94k988-5BezM-_0-9" value="" style="aspect=fixed;html=1;points=[];align=center;image;fontSize=12;image=img/lib/azure2/general/Image.svg;opacity=60;" parent="YEVu-PI1zoeRwZROw61F-1" vertex="1">
                    <mxGeometry x="115" y="855" width="232.73" height="160" as="geometry"/>
                </mxCell>
                <mxCell id="-wrxc94k988-5BezM-_0-10" value="" style="aspect=fixed;html=1;points=[];align=center;image;fontSize=12;image=img/lib/azure2/general/Image.svg;opacity=60;" parent="YEVu-PI1zoeRwZROw61F-1" vertex="1">
                    <mxGeometry x="115" y="1060" width="232.73" height="160" as="geometry"/>
                </mxCell>
                <mxCell id="-wrxc94k988-5BezM-_0-11" value="" style="aspect=fixed;html=1;points=[];align=center;image;fontSize=12;image=img/lib/azure2/general/Image.svg;opacity=60;" parent="YEVu-PI1zoeRwZROw61F-1" vertex="1">
                    <mxGeometry x="115" y="1260" width="232.73" height="160" as="geometry"/>
                </mxCell>
                <mxCell id="RT9LzpR6PZ0AlNGtbMeb-0" value="About us" style="text;html=1;points=[];align=center;verticalAlign=top;spacingTop=-4;fontSize=14;fontFamily=Verdana;" vertex="1" parent="YEVu-PI1zoeRwZROw61F-1">
                    <mxGeometry x="892.5" y="175" width="70" height="20" as="geometry"/>
                </mxCell>
                <mxCell id="RT9LzpR6PZ0AlNGtbMeb-1" value="Membership" style="text;html=1;points=[];align=left;verticalAlign=top;spacingTop=-4;fontSize=14;fontFamily=Verdana" vertex="1" parent="YEVu-PI1zoeRwZROw61F-1">
                    <mxGeometry x="702.5" y="175" width="83" height="20" as="geometry"/>
                </mxCell>
            </root>
        </mxGraphModel>
    </diagram>
    <diagram name="Reviews - Videos" id="mNj0Iz1JmeyYvMUV0ERa">
        <mxGraphModel dx="1061" dy="748" grid="1" gridSize="10" guides="1" tooltips="1" connect="1" arrows="1" fold="1" page="1" pageScale="1" pageWidth="1169" pageHeight="827" background="none" math="0" shadow="0">
            <root>
                <mxCell id="_13mMTRN-nmR6PIEwYjx-0"/>
                <mxCell id="_13mMTRN-nmR6PIEwYjx-1" parent="_13mMTRN-nmR6PIEwYjx-0"/>
                <mxCell id="_13mMTRN-nmR6PIEwYjx-2" value="" style="whiteSpace=wrap;html=1;rounded=0;shadow=0;labelBackgroundColor=none;strokeColor=#000000;strokeWidth=1;fillColor=none;fontFamily=Verdana;fontSize=12;fontColor=#000000;align=center;comic=1;" parent="_13mMTRN-nmR6PIEwYjx-1" vertex="1">
                    <mxGeometry x="30" y="20" width="1130" height="1610" as="geometry"/>
                </mxCell>
                <mxCell id="_13mMTRN-nmR6PIEwYjx-3" value="Anima Mundi Board Game Club" style="whiteSpace=wrap;html=1;rounded=0;shadow=0;labelBackgroundColor=none;strokeWidth=1;fontFamily=Verdana;fontSize=28;align=center;comic=1;" parent="_13mMTRN-nmR6PIEwYjx-1" vertex="1">
                    <mxGeometry x="351" y="55" width="467" height="85" as="geometry"/>
                </mxCell>
                <mxCell id="_13mMTRN-nmR6PIEwYjx-4" value="Search" style="strokeWidth=1;shadow=0;dashed=0;align=center;html=1;shape=mxgraph.mockup.forms.searchBox;strokeColor=#999999;mainText=;strokeColor2=#008cff;fontColor=#666666;fontSize=17;align=left;spacingLeft=3;rounded=0;labelBackgroundColor=none;comic=1;" parent="_13mMTRN-nmR6PIEwYjx-1" vertex="1">
                    <mxGeometry x="920" y="110" width="220" height="30" as="geometry"/>
                </mxCell>
                <mxCell id="_13mMTRN-nmR6PIEwYjx-5" value="VIDEO DESCRIPTION 1" style="whiteSpace=wrap;html=1;rounded=0;shadow=0;labelBackgroundColor=none;strokeWidth=1;fillColor=none;fontFamily=Verdana;fontSize=12;align=center;comic=1;" parent="_13mMTRN-nmR6PIEwYjx-1" vertex="1">
                    <mxGeometry x="590" y="430" width="485" height="320" as="geometry"/>
                </mxCell>
                <mxCell id="_13mMTRN-nmR6PIEwYjx-6" value="" style="whiteSpace=wrap;html=1;rounded=0;shadow=0;labelBackgroundColor=none;strokeWidth=1;fillColor=none;fontFamily=Verdana;fontSize=12;align=center;comic=1;" parent="_13mMTRN-nmR6PIEwYjx-1" vertex="1">
                    <mxGeometry x="30" y="160" width="1110" height="50" as="geometry"/>
                </mxCell>
                <mxCell id="_13mMTRN-nmR6PIEwYjx-7" value="Home" style="text;html=1;points=[];align=left;verticalAlign=top;spacingTop=-4;fontSize=14;fontFamily=Verdana" parent="_13mMTRN-nmR6PIEwYjx-1" vertex="1">
                    <mxGeometry x="262" y="175" width="60" height="20" as="geometry"/>
                </mxCell>
                <mxCell id="_13mMTRN-nmR6PIEwYjx-8" value="Events" style="text;html=1;points=[];align=left;verticalAlign=top;spacingTop=-4;fontSize=14;fontFamily=Verdana" parent="_13mMTRN-nmR6PIEwYjx-1" vertex="1">
                    <mxGeometry x="409" y="175" width="60" height="20" as="geometry"/>
                </mxCell>
                <mxCell id="_13mMTRN-nmR6PIEwYjx-9" value="Reviews" style="text;html=1;points=[];align=left;verticalAlign=top;spacingTop=-4;fontSize=14;fontFamily=Verdana;fillColor=#ffe6cc;strokeColor=#d79b00;" parent="_13mMTRN-nmR6PIEwYjx-1" vertex="1">
                    <mxGeometry x="555" y="175" width="60" height="20" as="geometry"/>
                </mxCell>
                <mxCell id="_13mMTRN-nmR6PIEwYjx-12" value="FOOTER" style="whiteSpace=wrap;html=1;rounded=0;shadow=0;labelBackgroundColor=none;strokeWidth=1;fillColor=none;fontFamily=Verdana;fontSize=12;align=center;comic=1;" parent="_13mMTRN-nmR6PIEwYjx-1" vertex="1">
                    <mxGeometry x="40" y="1500" width="1110" height="110" as="geometry"/>
                </mxCell>
                <mxCell id="_13mMTRN-nmR6PIEwYjx-13" value="COVID GUIDELINES" style="whiteSpace=wrap;html=1;rounded=0;shadow=0;labelBackgroundColor=none;strokeWidth=1;fillColor=none;fontFamily=Verdana;fontSize=12;align=center;comic=1;" parent="_13mMTRN-nmR6PIEwYjx-1" vertex="1">
                    <mxGeometry x="30" y="230" width="1120" height="30" as="geometry"/>
                </mxCell>
                <mxCell id="_13mMTRN-nmR6PIEwYjx-14" value="ARTICLES" style="whiteSpace=wrap;html=1;rounded=0;shadow=0;labelBackgroundColor=none;strokeWidth=1;fontFamily=Verdana;fontSize=12;align=center;comic=1;" parent="_13mMTRN-nmR6PIEwYjx-1" vertex="1">
                    <mxGeometry x="405" y="290" width="157" height="70" as="geometry"/>
                </mxCell>
                <mxCell id="_13mMTRN-nmR6PIEwYjx-15" value="VIDEOS" style="whiteSpace=wrap;html=1;rounded=0;shadow=0;labelBackgroundColor=none;strokeWidth=1;fillColor=#ffe6cc;fontFamily=Verdana;fontSize=12;align=center;comic=1;strokeColor=#d79b00;" parent="_13mMTRN-nmR6PIEwYjx-1" vertex="1">
                    <mxGeometry x="605" y="290" width="157" height="70" as="geometry"/>
                </mxCell>
                <mxCell id="_13mMTRN-nmR6PIEwYjx-18" value="INDEX BY GAME NAME" style="whiteSpace=wrap;html=1;rounded=0;shadow=0;labelBackgroundColor=none;strokeWidth=1;fillColor=none;fontFamily=Verdana;fontSize=12;align=center;comic=1;" parent="_13mMTRN-nmR6PIEwYjx-1" vertex="1">
                    <mxGeometry x="95" y="380" width="980" height="40" as="geometry"/>
                </mxCell>
                <mxCell id="_13mMTRN-nmR6PIEwYjx-28" value="" style="verticalLabelPosition=bottom;shadow=0;dashed=0;align=center;html=1;verticalAlign=top;strokeWidth=1;shape=mxgraph.mockup.containers.videoPlayer;strokeColor=#666666;strokeColor2=#008cff;strokeColor3=#c4c4c4;textColor=#666666;fillColor2=#008cff;barHeight=30;barPos=20;" parent="_13mMTRN-nmR6PIEwYjx-1" vertex="1">
                    <mxGeometry x="95" y="430" width="485" height="320" as="geometry"/>
                </mxCell>
                <mxCell id="_13mMTRN-nmR6PIEwYjx-29" value="VIDEO DESCRIPTION 2" style="whiteSpace=wrap;html=1;rounded=0;shadow=0;labelBackgroundColor=none;strokeWidth=1;fillColor=none;fontFamily=Verdana;fontSize=12;align=center;comic=1;" parent="_13mMTRN-nmR6PIEwYjx-1" vertex="1">
                    <mxGeometry x="590" y="760" width="485" height="320" as="geometry"/>
                </mxCell>
                <mxCell id="_13mMTRN-nmR6PIEwYjx-30" value="" style="verticalLabelPosition=bottom;shadow=0;dashed=0;align=center;html=1;verticalAlign=top;strokeWidth=1;shape=mxgraph.mockup.containers.videoPlayer;strokeColor=#666666;strokeColor2=#008cff;strokeColor3=#c4c4c4;textColor=#666666;fillColor2=#008cff;barHeight=30;barPos=20;" parent="_13mMTRN-nmR6PIEwYjx-1" vertex="1">
                    <mxGeometry x="95" y="760" width="485" height="320" as="geometry"/>
                </mxCell>
                <mxCell id="_13mMTRN-nmR6PIEwYjx-33" value="VIDEO DESCRIPTION 3" style="whiteSpace=wrap;html=1;rounded=0;shadow=0;labelBackgroundColor=none;strokeWidth=1;fillColor=none;fontFamily=Verdana;fontSize=12;align=center;comic=1;" parent="_13mMTRN-nmR6PIEwYjx-1" vertex="1">
                    <mxGeometry x="590" y="1090" width="485" height="320" as="geometry"/>
                </mxCell>
                <mxCell id="_13mMTRN-nmR6PIEwYjx-34" value="" style="verticalLabelPosition=bottom;shadow=0;dashed=0;align=center;html=1;verticalAlign=top;strokeWidth=1;shape=mxgraph.mockup.containers.videoPlayer;strokeColor=#666666;strokeColor2=#008cff;strokeColor3=#c4c4c4;textColor=#666666;fillColor2=#008cff;barHeight=30;barPos=20;" parent="_13mMTRN-nmR6PIEwYjx-1" vertex="1">
                    <mxGeometry x="95" y="1090" width="485" height="320" as="geometry"/>
                </mxCell>
                <mxCell id="jQL0IHAciWvHFONlEZJn-2" value="About us" style="text;html=1;points=[];align=center;verticalAlign=top;spacingTop=-4;fontSize=14;fontFamily=Verdana;" vertex="1" parent="_13mMTRN-nmR6PIEwYjx-1">
                    <mxGeometry x="892.5" y="175" width="70" height="20" as="geometry"/>
                </mxCell>
                <mxCell id="jQL0IHAciWvHFONlEZJn-3" value="Membership" style="text;html=1;points=[];align=left;verticalAlign=top;spacingTop=-4;fontSize=14;fontFamily=Verdana" vertex="1" parent="_13mMTRN-nmR6PIEwYjx-1">
                    <mxGeometry x="702.5" y="175" width="83" height="20" as="geometry"/>
                </mxCell>
            </root>
        </mxGraphModel>
    </diagram>
    <diagram name="Gallery" id="HNR9-1Px-bMs0vEBz0lC">
        <mxGraphModel dx="1248" dy="880" grid="1" gridSize="10" guides="1" tooltips="1" connect="1" arrows="1" fold="1" page="1" pageScale="1" pageWidth="1169" pageHeight="827" background="none" math="0" shadow="0">
            <root>
                <mxCell id="FKV8vzZ2DfRwz26PwZ2z-0"/>
                <mxCell id="FKV8vzZ2DfRwz26PwZ2z-1" parent="FKV8vzZ2DfRwz26PwZ2z-0"/>
                <mxCell id="FKV8vzZ2DfRwz26PwZ2z-2" value="" style="whiteSpace=wrap;html=1;rounded=0;shadow=0;labelBackgroundColor=none;strokeColor=#000000;strokeWidth=1;fillColor=none;fontFamily=Verdana;fontSize=12;fontColor=#000000;align=center;comic=1;" parent="FKV8vzZ2DfRwz26PwZ2z-1" vertex="1">
                    <mxGeometry x="30" y="20" width="1130" height="1610" as="geometry"/>
                </mxCell>
                <mxCell id="FKV8vzZ2DfRwz26PwZ2z-3" value="Anima Mundi Board Game Club" style="whiteSpace=wrap;html=1;rounded=0;shadow=0;labelBackgroundColor=none;strokeWidth=1;fontFamily=Verdana;fontSize=28;align=center;comic=1;" parent="FKV8vzZ2DfRwz26PwZ2z-1" vertex="1">
                    <mxGeometry x="351" y="55" width="467" height="85" as="geometry"/>
                </mxCell>
                <mxCell id="FKV8vzZ2DfRwz26PwZ2z-4" value="Search" style="strokeWidth=1;shadow=0;dashed=0;align=center;html=1;shape=mxgraph.mockup.forms.searchBox;strokeColor=#999999;mainText=;strokeColor2=#008cff;fontColor=#666666;fontSize=17;align=left;spacingLeft=3;rounded=0;labelBackgroundColor=none;comic=1;" parent="FKV8vzZ2DfRwz26PwZ2z-1" vertex="1">
                    <mxGeometry x="920" y="110" width="220" height="30" as="geometry"/>
                </mxCell>
                <mxCell id="FKV8vzZ2DfRwz26PwZ2z-6" value="" style="whiteSpace=wrap;html=1;rounded=0;shadow=0;labelBackgroundColor=none;strokeWidth=1;fillColor=none;fontFamily=Verdana;fontSize=12;align=center;comic=1;" parent="FKV8vzZ2DfRwz26PwZ2z-1" vertex="1">
                    <mxGeometry x="30" y="160" width="1110" height="50" as="geometry"/>
                </mxCell>
                <mxCell id="FKV8vzZ2DfRwz26PwZ2z-7" value="Home" style="text;html=1;points=[];align=left;verticalAlign=top;spacingTop=-4;fontSize=14;fontFamily=Verdana" parent="FKV8vzZ2DfRwz26PwZ2z-1" vertex="1">
                    <mxGeometry x="262" y="175" width="60" height="20" as="geometry"/>
                </mxCell>
                <mxCell id="FKV8vzZ2DfRwz26PwZ2z-8" value="Events" style="text;html=1;points=[];align=left;verticalAlign=top;spacingTop=-4;fontSize=14;fontFamily=Verdana" parent="FKV8vzZ2DfRwz26PwZ2z-1" vertex="1">
                    <mxGeometry x="409" y="175" width="60" height="20" as="geometry"/>
                </mxCell>
                <mxCell id="FKV8vzZ2DfRwz26PwZ2z-9" value="Reviews" style="text;html=1;points=[];align=left;verticalAlign=top;spacingTop=-4;fontSize=14;fontFamily=Verdana;" parent="FKV8vzZ2DfRwz26PwZ2z-1" vertex="1">
                    <mxGeometry x="555" y="175" width="60" height="20" as="geometry"/>
                </mxCell>
                <mxCell id="FKV8vzZ2DfRwz26PwZ2z-10" value="About us" style="text;html=1;points=[];align=center;verticalAlign=top;spacingTop=-4;fontSize=14;fontFamily=Verdana;fillColor=#ffe6cc;strokeColor=#d79b00;" parent="FKV8vzZ2DfRwz26PwZ2z-1" vertex="1">
                    <mxGeometry x="920" y="175" width="70" height="20" as="geometry"/>
                </mxCell>
                <mxCell id="FKV8vzZ2DfRwz26PwZ2z-11" value="Membership" style="text;html=1;points=[];align=left;verticalAlign=top;spacingTop=-4;fontSize=14;fontFamily=Verdana" parent="FKV8vzZ2DfRwz26PwZ2z-1" vertex="1">
                    <mxGeometry x="730" y="175" width="83" height="20" as="geometry"/>
                </mxCell>
                <mxCell id="FKV8vzZ2DfRwz26PwZ2z-12" value="FOOTER" style="whiteSpace=wrap;html=1;rounded=0;shadow=0;labelBackgroundColor=none;strokeWidth=1;fillColor=none;fontFamily=Verdana;fontSize=12;align=center;comic=1;" parent="FKV8vzZ2DfRwz26PwZ2z-1" vertex="1">
                    <mxGeometry x="40" y="1500" width="1110" height="110" as="geometry"/>
                </mxCell>
                <mxCell id="FKV8vzZ2DfRwz26PwZ2z-13" value="COVID GUIDELINES" style="whiteSpace=wrap;html=1;rounded=0;shadow=0;labelBackgroundColor=none;strokeWidth=1;fillColor=none;fontFamily=Verdana;fontSize=12;align=center;comic=1;" parent="FKV8vzZ2DfRwz26PwZ2z-1" vertex="1">
                    <mxGeometry x="30" y="230" width="1120" height="30" as="geometry"/>
                </mxCell>
                <mxCell id="WVFDK2-dpTZN_Ndf7UZL-8" style="edgeStyle=orthogonalEdgeStyle;rounded=0;orthogonalLoop=1;jettySize=auto;html=1;entryX=-0.001;entryY=0.513;entryDx=0;entryDy=0;entryPerimeter=0;" parent="FKV8vzZ2DfRwz26PwZ2z-1" target="WVFDK2-dpTZN_Ndf7UZL-9" edge="1">
                    <mxGeometry relative="1" as="geometry">
                        <mxPoint x="1360" y="430" as="targetPoint"/>
                        <mxPoint x="1014.4100000000003" y="445" as="sourcePoint"/>
                    </mxGeometry>
                </mxCell>
                <mxCell id="WVFDK2-dpTZN_Ndf7UZL-6" value="" style="aspect=fixed;html=1;points=[];align=center;image;fontSize=12;image=img/lib/azure2/general/Image.svg;opacity=60;" parent="FKV8vzZ2DfRwz26PwZ2z-1" vertex="1">
                    <mxGeometry x="154.41" y="1200" width="421.82" height="290" as="geometry"/>
                </mxCell>
                <mxCell id="WVFDK2-dpTZN_Ndf7UZL-7" value="" style="aspect=fixed;html=1;points=[];align=center;image;fontSize=12;image=img/lib/azure2/general/Image.svg;opacity=60;" parent="FKV8vzZ2DfRwz26PwZ2z-1" vertex="1">
                    <mxGeometry x="591.41" y="1200" width="421.82" height="290" as="geometry"/>
                </mxCell>
                <mxCell id="WVFDK2-dpTZN_Ndf7UZL-9" value="TO OPEN IN THE SAME PAGE IN A BIGGER SIZE" style="aspect=fixed;html=1;points=[];align=center;image;fontSize=12;image=img/lib/azure2/general/Image.svg;opacity=60;" parent="FKV8vzZ2DfRwz26PwZ2z-1" vertex="1">
                    <mxGeometry x="1290" y="30" width="945.46" height="650" as="geometry"/>
                </mxCell>
            </root>
        </mxGraphModel>
    </diagram>
    <diagram name="Donate" id="MBKEFkxB-VDFy_ltpCAU">
        <mxGraphModel dx="1061" dy="748" grid="1" gridSize="10" guides="1" tooltips="1" connect="1" arrows="1" fold="1" page="1" pageScale="1" pageWidth="1169" pageHeight="827" background="none" math="0" shadow="0">
            <root>
                <mxCell id="B42eXlNj7yGwXqjC507K-0"/>
                <mxCell id="B42eXlNj7yGwXqjC507K-1" parent="B42eXlNj7yGwXqjC507K-0"/>
                <mxCell id="B42eXlNj7yGwXqjC507K-2" value="" style="whiteSpace=wrap;html=1;rounded=0;shadow=0;labelBackgroundColor=none;strokeColor=#000000;strokeWidth=1;fillColor=none;fontFamily=Verdana;fontSize=12;fontColor=#000000;align=center;comic=1;" parent="B42eXlNj7yGwXqjC507K-1" vertex="1">
                    <mxGeometry x="20" y="20" width="1140" height="1190" as="geometry"/>
                </mxCell>
                <mxCell id="B42eXlNj7yGwXqjC507K-3" value="Anima Mundi Board Game Club" style="whiteSpace=wrap;html=1;rounded=0;shadow=0;labelBackgroundColor=none;strokeWidth=1;fontFamily=Verdana;fontSize=28;align=center;comic=1;" parent="B42eXlNj7yGwXqjC507K-1" vertex="1">
                    <mxGeometry x="351" y="55" width="467" height="85" as="geometry"/>
                </mxCell>
                <mxCell id="B42eXlNj7yGwXqjC507K-4" value="Search" style="strokeWidth=1;shadow=0;dashed=0;align=center;html=1;shape=mxgraph.mockup.forms.searchBox;strokeColor=#999999;mainText=;strokeColor2=#008cff;fontColor=#666666;fontSize=17;align=left;spacingLeft=3;rounded=0;labelBackgroundColor=none;comic=1;" parent="B42eXlNj7yGwXqjC507K-1" vertex="1">
                    <mxGeometry x="920" y="110" width="220" height="30" as="geometry"/>
                </mxCell>
                <mxCell id="B42eXlNj7yGwXqjC507K-5" value="MEMBERSHIPS DESCRIPTION" style="whiteSpace=wrap;html=1;rounded=0;shadow=0;labelBackgroundColor=none;strokeWidth=1;fillColor=none;fontFamily=Verdana;fontSize=12;align=center;comic=1;" parent="B42eXlNj7yGwXqjC507K-1" vertex="1">
                    <mxGeometry x="140" y="290" width="890" height="120" as="geometry"/>
                </mxCell>
                <mxCell id="B42eXlNj7yGwXqjC507K-6" value="" style="whiteSpace=wrap;html=1;rounded=0;shadow=0;labelBackgroundColor=none;strokeWidth=1;fillColor=none;fontFamily=Verdana;fontSize=12;align=center;comic=1;" parent="B42eXlNj7yGwXqjC507K-1" vertex="1">
                    <mxGeometry x="30" y="160" width="1120" height="50" as="geometry"/>
                </mxCell>
                <mxCell id="B42eXlNj7yGwXqjC507K-7" value="Home" style="text;html=1;points=[];align=left;verticalAlign=top;spacingTop=-4;fontSize=14;fontFamily=Verdana" parent="B42eXlNj7yGwXqjC507K-1" vertex="1">
                    <mxGeometry x="262" y="175" width="60" height="20" as="geometry"/>
                </mxCell>
                <mxCell id="B42eXlNj7yGwXqjC507K-8" value="Events" style="text;html=1;points=[];align=left;verticalAlign=top;spacingTop=-4;fontSize=14;fontFamily=Verdana" parent="B42eXlNj7yGwXqjC507K-1" vertex="1">
                    <mxGeometry x="409" y="175" width="60" height="20" as="geometry"/>
                </mxCell>
                <mxCell id="B42eXlNj7yGwXqjC507K-9" value="Reviews" style="text;html=1;points=[];align=left;verticalAlign=top;spacingTop=-4;fontSize=14;fontFamily=Verdana;" parent="B42eXlNj7yGwXqjC507K-1" vertex="1">
                    <mxGeometry x="555" y="175" width="60" height="20" as="geometry"/>
                </mxCell>
                <mxCell id="B42eXlNj7yGwXqjC507K-11" value="Membership" style="text;html=1;points=[];align=left;verticalAlign=top;spacingTop=-4;fontSize=14;fontFamily=Verdana;fillColor=#ffe6cc;strokeColor=#d79b00;" parent="B42eXlNj7yGwXqjC507K-1" vertex="1">
                    <mxGeometry x="700" y="175" width="93" height="20" as="geometry"/>
                </mxCell>
                <mxCell id="B42eXlNj7yGwXqjC507K-12" value="FOOTER" style="whiteSpace=wrap;html=1;rounded=0;shadow=0;labelBackgroundColor=none;strokeWidth=1;fillColor=none;fontFamily=Verdana;fontSize=12;align=center;comic=1;" parent="B42eXlNj7yGwXqjC507K-1" vertex="1">
                    <mxGeometry x="40" y="1090" width="1110" height="110" as="geometry"/>
                </mxCell>
                <mxCell id="B42eXlNj7yGwXqjC507K-13" value="COVID GUIDELINES" style="whiteSpace=wrap;html=1;rounded=0;shadow=0;labelBackgroundColor=none;strokeWidth=1;fillColor=none;fontFamily=Verdana;fontSize=12;align=center;comic=1;" parent="B42eXlNj7yGwXqjC507K-1" vertex="1">
                    <mxGeometry x="30" y="230" width="1120" height="30" as="geometry"/>
                </mxCell>
                <mxCell id="B42eXlNj7yGwXqjC507K-20" value="OPTION 1" style="whiteSpace=wrap;html=1;rounded=0;shadow=0;labelBackgroundColor=none;strokeWidth=1;fillColor=none;fontFamily=Verdana;fontSize=12;align=center;comic=1;" parent="B42eXlNj7yGwXqjC507K-1" vertex="1">
                    <mxGeometry x="140" y="420" width="440" height="320" as="geometry"/>
                </mxCell>
                <mxCell id="kCGliGpBBH_fRvEdBLUL-0" value="OPTION 2" style="whiteSpace=wrap;html=1;rounded=0;shadow=0;labelBackgroundColor=none;strokeWidth=1;fillColor=none;fontFamily=Verdana;fontSize=12;align=center;comic=1;" parent="B42eXlNj7yGwXqjC507K-1" vertex="1">
                    <mxGeometry x="590" y="420" width="440" height="320" as="geometry"/>
                </mxCell>
                <mxCell id="kCGliGpBBH_fRvEdBLUL-1" value="OPTION 3" style="whiteSpace=wrap;html=1;rounded=0;shadow=0;labelBackgroundColor=none;strokeWidth=1;fillColor=none;fontFamily=Verdana;fontSize=12;align=center;comic=1;" parent="B42eXlNj7yGwXqjC507K-1" vertex="1">
                    <mxGeometry x="140" y="750" width="440" height="320" as="geometry"/>
                </mxCell>
                <mxCell id="kCGliGpBBH_fRvEdBLUL-2" value="OPTION 4" style="whiteSpace=wrap;html=1;rounded=0;shadow=0;labelBackgroundColor=none;strokeWidth=1;fillColor=none;fontFamily=Verdana;fontSize=12;align=center;comic=1;" parent="B42eXlNj7yGwXqjC507K-1" vertex="1">
                    <mxGeometry x="590" y="750" width="440" height="320" as="geometry"/>
                </mxCell>
                <mxCell id="a-GPwCNPdrq-lgawrr0Y-0" value="About us" style="text;html=1;points=[];align=center;verticalAlign=top;spacingTop=-4;fontSize=14;fontFamily=Verdana;" vertex="1" parent="B42eXlNj7yGwXqjC507K-1">
                    <mxGeometry x="880" y="175" width="70" height="20" as="geometry"/>
                </mxCell>
            </root>
        </mxGraphModel>
    </diagram>
</mxfile>